<svg xmlns="http://www.w3.org/2000/svg" aria-hidden="true" class="nav-header__tv-plus-logo--tab" viewBox="0 0 102.229 108.048"><path d="M15.318 108.048H86.91C97.092 108.048 102.23 102.993 102.23 92.938V42.797C102.229 32.784 97.092 27.688 86.911 27.688H15.318C5.086 27.687 0 32.71 0 42.797V92.938C0 103.013 5.086 108.047 15.318 108.047ZM15.443 100.195C10.566 100.195 7.853 97.585 7.853 92.502V43.222C7.853 38.15 10.566 35.53 15.443 35.53H86.787C91.62 35.53 94.376 38.15 94.376 43.223V92.503C94.376 97.585 91.621 100.194 86.786 100.194ZM10.313 19.832H92.009C91.244 15.377 89.17 12.91 84.302 12.91H18.032C13.1 12.91 11.036 15.377 10.311 19.832ZM20.33 6.3H81.95C81.64 2.167 79.32 0 74.803 0H27.479C23.014 0 20.641 2.167 20.33 6.3Z"></path></svg>